Coordinates
version=1
nRows=49
nColumns=12
inDegrees=yes

Units are S.I. units (second, meters, Newtons, ...)
Angles are in degrees

endheader
time	SC_y	SC_z	SC_x	AC_y	AC_z	AC_x	GH_y	GH_z	GH_yy	EL_x	PS_y
       0.0              -26.77          38.15           27.3          52.74         -8.828          8.005         -11.13          8.952         -61.83          122.4          72.12
   0.03838              -26.78          38.15           27.3          52.74         -8.826          8.002         -11.13           8.95         -61.81          122.4          72.12
   0.07676              -26.78          38.15          27.31          52.74         -8.823          7.999         -11.12          8.948         -61.78          122.4          72.13
    0.1151              -26.78          38.14          27.31          52.74         -8.821          7.995         -11.12          8.946         -61.75          122.4          72.14
    0.1535              -26.78          38.14          27.32          52.73         -8.818          7.992         -11.12          8.944         -61.72          122.4          72.15
    0.1919              -26.79          38.14          27.33          52.73         -8.815          7.988         -11.12          8.941         -61.69          122.3          72.16
    0.2303              -26.79          38.14          27.33          52.73         -8.812          7.984         -11.12          8.939         -61.65          122.3          72.17
    0.2687              -26.79          38.14          27.34          52.73         -8.808           7.98         -11.11          8.936         -61.62          122.3          72.18
     0.307               -26.8          38.14          27.35          52.72         -8.804          7.976         -11.11          8.933         -61.58          122.3          72.19
    0.3454               -26.8          38.14          27.35          52.72           -8.8          7.971         -11.11           8.93         -61.54          122.3           72.2
    0.3838               -26.8          38.14          27.36          52.72         -8.796          7.966         -11.11          8.927         -61.49          122.3          72.21
    0.4222              -26.81          38.13          27.37          52.72         -8.792           7.96          -11.1          8.924         -61.44          122.3          72.22
    0.4606              -26.81          38.13          27.38          52.71         -8.787          7.954          -11.1           8.92         -61.39          122.2          72.24
    0.4989              -26.82          38.13          27.39          52.71         -8.782          7.947          -11.1          8.916         -61.33          122.2          72.25
    0.5373              -26.82          38.13           27.4           52.7         -8.776           7.94         -11.09          8.911         -61.27          122.2          72.27
    0.5757              -26.83          38.13          27.41           52.7          -8.77          7.933         -11.09          8.907          -61.2          122.2          72.29
    0.6141              -26.83          38.12          27.43           52.7         -8.763          7.925         -11.08          8.901         -61.13          122.1          72.31
    0.6525              -26.84          38.12          27.44          52.69         -8.755          7.915         -11.08          8.896         -61.05          122.1          72.33
    0.6908              -26.85          38.12          27.46          52.68         -8.747          7.906         -11.07           8.89         -60.96          122.1          72.35
    0.7292              -26.85          38.12          27.47          52.68         -8.739          7.895         -11.06          8.883         -60.87          122.0          72.38
    0.7676              -26.86          38.11          27.49          52.67         -8.729          7.883         -11.06          8.875         -60.77          122.0           72.4
     0.806              -26.87          38.11          27.51          52.66         -8.718           7.87         -11.05          8.867         -60.65          122.0          72.44
    0.8444              -26.88          38.11          27.53          52.66         -8.707          7.855         -11.04          8.858         -60.53          121.9          72.47
    0.8827              -26.89           38.1          27.56          52.65         -8.694           7.84         -11.03          8.848         -60.39          121.9          72.51
    0.9211              -26.91           38.1          27.59          52.64         -8.679          7.822         -11.02          8.837         -60.23          121.8          72.55
    0.9595              -26.92          38.09          27.62          52.63         -8.663          7.802         -11.01          8.825         -60.06          121.7           72.6
    0.9979              -26.94          38.08          27.65          52.61         -8.645           7.78          -11.0          8.811         -59.86          121.7          72.65
     1.036              -26.95          38.08          27.69           52.6         -8.625          7.755         -10.98          8.795         -59.64          121.6          72.71
     1.075              -26.97          38.07          27.74          52.58         -8.602          7.727         -10.97          8.778          -59.4          121.5          72.77
     1.113               -27.0          38.06          27.79          52.56         -8.576          7.695         -10.95          8.758         -59.12          121.4          72.85
     1.151              -27.02          38.05          27.85          52.54         -8.546          7.658         -10.93          8.735         -58.79          121.3          72.94
      1.19              -27.05          38.04          27.91          52.52         -8.512          7.616          -10.9          8.708         -58.43          121.1          73.04
     1.228              -27.09          38.02          27.99          52.49         -8.472          7.568         -10.87          8.678          -58.0          121.0          73.15
     1.267              -27.13          38.01          28.08          52.46         -8.426          7.511         -10.84          8.643         -57.51          120.8          73.28
     1.305              -27.18          37.99          28.18          52.42         -8.373          7.445          -10.8          8.602         -56.93          120.6          73.44
     1.343              -27.23          37.97           28.3          52.38         -8.309          7.368         -10.76          8.553         -56.25          120.3          73.62
     1.382               -27.3          37.94          28.45          52.32         -8.234          7.275          -10.7          8.495         -55.44          120.0          73.84
      1.42              -27.38          37.91          28.62          52.26         -8.144          7.165         -10.64          8.426         -54.47          119.7           74.1
     1.458              -27.47          37.87          28.83          52.18         -8.035          7.031         -10.56          8.342          -53.3          119.2          74.42
     1.497              -27.59          37.83          29.09          52.09         -7.902          6.868         -10.47           8.24         -51.87          118.7           74.8
     1.535              -27.74          37.77          29.41          51.97         -7.738          6.666         -10.35          8.114          -50.1          118.1          75.28
     1.574              -27.92           37.7           29.8          51.83         -7.533          6.414          -10.2          7.956          -47.9          117.3          75.88
     1.612              -28.15          37.61           30.3          51.65         -7.275          6.097         -10.02          7.758         -45.12          116.2          76.62
      1.65              -28.43           37.5          30.94          51.42         -6.947          5.694         -9.782          7.506         -41.59          114.9          77.58
     1.689              -28.81          37.35          31.75          51.12         -6.527          5.179         -9.482          7.183         -37.07          113.3           78.8
     1.727              -29.28          37.17          32.79          50.74         -5.988          4.517         -9.096          6.769         -31.27          111.1          80.36
     1.765              -29.89          36.93          34.12          50.26           -5.3          3.672         -8.603           6.24         -23.87          108.4          82.36
     1.804              -30.65          36.63           35.8          49.65         -4.434          2.609         -7.984          5.574         -14.55          104.9          84.87
     1.842              -31.58          36.27          37.84           48.9          -3.38          1.314         -7.229          4.764         -3.204          100.7          87.93
